<?xml version="1.0" encoding="utf-8"?>
<!-- Generator: Adobe Illustrator 16.0.3, SVG Export Plug-In . SVG Version: 6.00 Build 0)  -->
<!DOCTYPE svg PUBLIC "-//W3C//DTD SVG 1.1//EN" "http://www.w3.org/Graphics/SVG/1.1/DTD/svg11.dtd">
<svg version="1.1" xmlns="http://www.w3.org/2000/svg" xmlns:xlink="http://www.w3.org/1999/xlink" x="0px" y="0px" width="1000px"
	 height="1000px" viewBox="0 0 1000 1000" enable-background="new 0 0 1000 1000" xml:space="preserve">
<g id="Layer_10">
	<rect x="-1" y="1" width="1000" height="1000"/>
</g>
<g id="bg" display="none">
	<g display="inline">
		<g>
			<path fill="#B3B3B3" d="M-35.898,174.004c-6.91,33.379-9.159,68.232-9.593,102.318c-0.24,18.812-0.087,37.643,1.448,56.403
				c1.518,18.551,3.79,37.18,7.551,55.412c3.378,16.374,10.258,32.578,17.797,47.239c9.291,18.066,29.211,39.767,47.871,48.617
				c0.519,0.246,18.972,9.837,27.747,11.14c32.561,4.833,23.72,4.536,56.28,0.004c11.779-1.64,23.377-7.349,33.261-13.958
				c9.219-6.165,18.429-13.044,26.422-20.881c8.294-8.133,15.93-19.581,22.422-28.013c5.154-6.695,9.649-13.845,13.904-21.137
				c6.933-11.879,12.855-24.265,20.514-35.701c21.875-32.668,38.906-68.315,62.97-99.57c-5.212,6.746-10.424,13.493-15.637,20.239
				c8.592-11.029,17.966-21.482,28.993-30.139c-6.746,5.212-13.493,10.424-20.239,15.636c3.81-2.915,7.765-5.571,11.953-7.912
				c-50.157-28.782-100.314-57.565-150.472-86.347c0.153,2.55,0.075,5.036-0.183,7.577c1.191-8.861,2.381-17.723,3.572-26.584
				c-0.979,7.212-3.283,14.033-6.067,20.732c3.36-7.962,6.72-15.925,10.081-23.888c-4.691,10.905-10.712,21.148-15.426,32.035
				c-5.982,13.818-12.196,27.535-18.51,41.204c-12.574,27.217-25.655,54.196-38.571,81.252
				C52.854,381.13,23.402,442.565-0.604,506.357c3.36-7.962,6.72-15.925,10.081-23.888c-7.682,15.263-14.901,30.743-20.638,46.883
				c-4.275,12.024-5.054,26.592-6.282,38.485c-1.268,12.287,0.511,25.813,5.074,37.275c3.36,7.963,6.72,15.926,10.081,23.888
				c8.89,15.026,20.849,26.985,35.875,35.875c15.597,9.046,32.421,13.598,50.472,13.653c18.051-0.056,34.875-4.607,50.472-13.653
				c12.427-5.557,23.665-15.785,33.887-23.882c5.234-4.146,9.98-8.776,14.488-13.694c8.244-8.993,15.354-18.951,23.07-28.384
				c25.732-31.449,50.07-64.071,73.859-97.01c38.341-53.089,76.698-106.131,116.732-157.969
				c-5.212,6.746-10.424,13.492-15.637,20.239c18.428-23.824,37.229-47.365,56.781-70.278
				c15.972-18.717,30.313-39.259,49.725-54.693c-6.746,5.212-13.492,10.424-20.239,15.636c4.527-3.485,9.249-6.581,14.392-9.082
				c-50.157-28.782-100.314-57.565-150.472-86.347c-0.052,0.761-0.133,1.519-0.244,2.273c1.19-8.861,2.381-17.723,3.572-26.584
				c-0.622,3.762-1.769,7.32-3.216,10.842c3.36-7.962,6.721-15.925,10.081-23.888c-4.473,10.268-10.964,19.481-17.769,28.32
				c5.212-6.746,10.424-13.492,15.637-20.239c-18.268,23.449-38.166,45.838-57.461,68.439
				c-23.285,27.272-46.902,54.259-70.458,81.297c-45.566,52.303-91.103,104.773-134.176,159.165
				c-19.799,25.002-39.318,50.28-57.882,76.22C8.53,530.169-1.49,545.508-11.834,560.642c-8.995,13.159-17.826,26.61-24.17,41.286
				c-4.552,10.53-10.134,22.161-13.599,33.564c-3.475,11.438-4.066,24.49-5.513,35.805c-1.385,10.837,2.371,27.467,3.599,35.095
				c1.784,11.09,7.561,21.616,12.465,31.433c8.89,15.027,20.849,26.985,35.875,35.875c15.597,9.046,32.421,13.598,50.472,13.653
				c13.706-0.963,29.01-2.184,42.27-7.176c13.824-5.204,28.157-10.86,40.678-18.992c17.845-11.589,34.585-25.515,49.903-40.326
				c22.125-21.394,44.233-42.787,65.287-65.253c45.804-48.879,87.696-101.239,129.586-153.456
				c43.779-54.571,88.104-108.715,133.118-162.273c23.1-27.485,46.462-54.75,70.213-81.675
				c20.281-22.992,39.166-47.382,61.66-68.315c4.358-4.055,8.909-7.896,13.605-11.552c-6.746,5.212-13.492,10.424-20.238,15.636
				c1.834-1.396,3.687-2.76,5.566-4.093c-48.967-37.644-97.933-75.288-146.899-112.931c-0.817,3.545-1.973,6.95-3.364,10.309
				c3.36-7.962,6.721-15.925,10.081-23.888c-4.572,10.535-11.072,20.056-18.025,29.146c5.212-6.746,10.424-13.493,15.636-20.239
				c-15.498,20.005-33.602,37.682-50.49,56.469c-10.254,11.407-19.573,23.701-29.196,35.637
				c-11.297,14.012-22.561,28.051-33.793,42.115c-49.53,62.021-98.355,124.625-146.086,188.042
				c-41.578,55.243-82.358,111.024-119.784,169.194c-18.591,28.895-36.333,58.336-53.08,88.338
				c-11.283,20.212-24.39,39.44-34.63,60.223c-8.098,16.434-16.331,33.728-20.376,51.737c-5.502,24.494-7.955,53.633,0.755,77.849
				c3.36,7.963,6.72,15.925,10.081,23.888c8.89,15.027,20.849,26.985,35.875,35.875c24.08,14.106,50.289,15.948,77.056,10.081
				c29.68-6.506,52.063-24.265,75.146-42.516c10.351-8.184,19.645-17.628,28.932-26.971c11.888-11.959,25.123-22.764,37.44-34.302
				c12.738-11.932,25.288-24.063,37.725-36.309c49.785-49.015,96.995-100.491,145.813-150.443
				c40.179-41.111,80.363-82.218,120.547-123.325c20.056-20.518,40.111-41.036,60.166-61.556
				c16.294-16.672,29.631-36.055,48.087-50.614c-6.746,5.212-13.492,10.424-20.238,15.637c3.448-2.633,7.003-5.037,10.858-7.035
				c-45.606-45.606-91.213-91.213-136.818-136.819c-38.257,60.625-81.136,118.135-124.925,174.837
				c5.212-6.747,10.424-13.493,15.636-20.239c-45.943,59.452-92.826,118.197-137.573,178.563
				c-40.934,55.222-78.404,112.722-115.445,170.598c-35.016,54.711-69.144,110.006-101.336,166.433
				c-8.07,14.145-18.325,26.942-26.529,41.035c-8.658,14.87-16.2,31.14-20.82,47.642c-8.573,30.62-6.016,66.133,10.992,93.546
				c8.89,15.026,20.849,26.985,35.875,35.875c7.962,3.36,15.925,6.721,23.888,10.081c17.723,4.763,35.445,4.763,53.168,0
				c11.263-4.129,22.876-8.469,33.314-14.581c10.986-6.433,20.78-14.992,30.528-23.088c7.524-6.25,14.078-13.653,20.275-21.189
				c16.677-20.282,31.083-41.965,47.043-62.72c-5.212,6.746-10.424,13.492-15.636,20.238c47.866-61.383,92.954-125.03,136.8-189.331
				c39.223-57.52,76.252-116.46,115.028-174.271c61.287-91.37,124.881-181.896,173.292-281.015
				c9.046-15.597,13.598-32.421,13.653-50.472c0-26.416-10.62-52.042-29.289-70.71c-18.669-18.669-44.295-29.29-70.711-29.29
				c-8.861,1.191-17.723,2.381-26.584,3.572c-16.94,4.751-31.649,13.323-44.127,25.717c-14.661,11.715-27.132,25.798-38.786,40.441
				c-16.934,21.274-32.813,43.206-48.909,65.092c5.212-6.747,10.424-13.493,15.637-20.239
				c-48.41,62.249-96.723,124.624-142.329,188.974c-40.521,57.177-78.64,116.155-114.489,176.368
				c-17.803,29.903-34.888,60.236-51.108,91.028c-13.21,25.078-24.964,50.886-38.266,75.903
				c-9.276,17.446-16.877,35.144-24.571,53.416c-7.856,18.658-10.25,36.334-12.347,56.885c-1.294,12.687,1.484,26.321,4.247,38.369
				c2.277,9.93,7.563,19.57,11.756,28.474c5.212,6.746,10.424,13.493,15.637,20.239c12.477,12.394,27.186,20.966,44.126,25.717
				c10.106,1.74,20.285,3.356,30.519,4.04c13.623,0.909,28.53-1.606,41.478-6.415c13.744-5.104,27.746-10.706,40.093-18.803
				c15.354-10.067,29.295-22.193,43.791-33.443c-6.746,5.213-13.493,10.425-20.239,15.637c31.483-24.16,61.917-48.688,90.417-76.329
				c23.867-23.148,46.47-47.573,68.513-72.452c21.877-24.692,43.217-49.873,64.567-75.021c24.511-28.869,48.868-59.061,65.96-93.062
				c7.832-15.578,14.017-31.939,20.787-47.991c-3.36,7.963-6.721,15.926-10.081,23.889
				c41.366-97.589,96.104-189.364,160.764-273.285c-5.212,6.747-10.424,13.493-15.637,20.239
				c16.292-21.077,33.429-41.423,50.568-61.809c16.081-19.127,32.626-38.167,52.372-53.635
				c-6.746,5.212-13.492,10.424-20.238,15.636c8.399-6.452,17.293-12.131,27.016-16.378c-7.963,3.36-15.926,6.721-23.889,10.081
				c3.257-1.359,6.553-2.545,9.937-3.547c-37.644-48.966-75.287-97.933-112.931-146.899c-1.732,2.66-3.56,5.232-5.487,7.754
				c5.212-6.746,10.424-13.492,15.636-20.239c-9.921,12.542-22.014,23.085-32.748,34.893
				c-11.514,12.666-22.248,26.141-32.915,39.519c-26.466,33.187-51.923,67.169-76.372,101.866
				c-41.052,58.257-80.082,118.025-119.87,177.152c-32.19,47.835-64.149,95.83-95.303,144.349
				c57.565,33.647,115.129,67.296,172.694,100.943c71.563-118.532,152.706-230.898,236.011-341.376
				c47.458-62.938,95.674-125.301,143.401-188.035c9.046-15.597,13.598-32.421,13.653-50.472c0-26.416-10.62-52.042-29.289-70.71
				c-18.669-18.669-44.295-29.29-70.711-29.29c-8.861,1.191-17.723,2.381-26.584,3.572c-16.94,4.751-31.649,13.323-44.127,25.717
				c-22.087,18.803-42.005,39.933-60.471,62.272c-24.207,29.284-46.875,59.946-67.987,91.535
				c-33.104,49.532-62.551,101.361-94.202,151.808c-35.497,56.576-70.158,113.505-103.019,171.667
				c-16.757,29.66-33.006,59.592-49.42,89.44c-8.418,15.309-16.816,30.629-25.054,46.036c-4.087,7.645-8.117,15.317-12.097,23.018
				c-6.965,13.479-12.688,26.981-18.634,41.099c3.36-7.963,6.721-15.926,10.081-23.888c-3.803,8.754-8.332,17.19-12.325,25.86
				c-5.738,12.459-11.112,25.111-16.009,37.924c-1.928,5.043-3.554,10.218-4.527,15.534c-5.023,27.438-5.106,35.394-0.183,62.731
				c1.92,10.66,7.712,20.846,12.434,30.351c8.374,16.855,26.481,33.997,42.652,43.282c28.59,16.415,67.75,21.439,98.87,8.88
				c13.091-5.283,26.288-10.188,38.249-17.696c12.662-7.947,24.523-17.898,36.16-26.989c26.648-20.818,50.141-45.811,72.771-70.828
				c19.965-22.07,39.142-44.852,57.855-67.988c75.781-93.689,145.171-192.181,215.296-290.098
				c21.005-29.329,42.442-58.351,63.269-87.807c20.557-29.075,40.796-58.386,62.553-86.588
				c-5.212,6.746-10.424,13.492-15.636,20.238c13.649-17.619,27.886-34.77,43.149-51.019
				c-52.353-40.394-104.705-80.788-157.058-121.182c-11.521,22.162-25.981,42.562-41.205,62.306
				c5.212-6.747,10.425-13.493,15.637-20.239c-24.595,31.751-50.611,62.33-74.432,94.697c-21.211,28.82-42.884,57.299-64.028,86.172
				c-42.408,57.907-83.939,116.458-124.403,175.74c-39.722,58.194-78.221,117.294-116.094,176.708
				c-18.806,29.502-37.204,59.267-54.855,89.477c-13.676,23.405-26.081,47.493-40.818,70.251
				c-9.468,14.621-18.808,29.418-26.181,45.23c-6.654,14.271-14.091,29.468-17.603,45.098c-5.193,23.114-7.059,47.687,0.078,70.733
				c13.055,42.161,50.992,74.159,96.428,73.416c11.527-0.188,23.125-2.392,34.394-4.242c9.892-1.624,24.92-9.599,30.534-12.018
				c12.787-5.509,23.816-16.004,34.107-24.785c11.85-10.109,23.432-20.688,34.816-31.317c24.175-22.569,46.8-46.761,68.482-71.717
				c49.147-56.568,94.276-116.899,138.4-177.43C861.457,788.305,935.353,669.71,1014.85,554.97
				c13.906-20.071,28.002-40.013,42.32-59.792c9.046-15.597,13.598-32.421,13.653-50.472c0-26.416-10.62-52.042-29.289-70.71
				c-18.669-18.669-44.295-29.29-70.711-29.29c-8.861,1.191-17.723,2.381-26.584,3.572c-16.94,4.751-31.649,13.323-44.127,25.717
				c-88.6,106.053-181.954,208.051-269.442,315.044c-48.828,59.713-96.126,120.779-139.546,184.555
				c-19.698,28.931-38.72,58.32-57.187,88.051c-15.342,24.698-29.459,50.177-45.105,74.667
				c-5.829,9.124-11.625,18.299-16.362,28.049c-5.736,11.807-11.539,23.933-14.95,36.651c-6.721,25.059-4.158,38.111-0.771,62.924
				c3.36,7.963,6.72,15.925,10.081,23.888c8.89,15.027,20.849,26.985,35.875,35.875c7.962,3.36,15.925,6.721,23.888,10.081
				c17.723,4.763,35.445,4.763,53.168,0c13.028-4.998,26.58-9.937,38.358-17.659c12.527-8.214,24.364-17.73,35.496-27.77
				c10.4-9.379,19.675-19.96,28.976-30.403c21.54-24.186,45.15-46.581,67.817-69.708c25.041-25.55,50.021-51.159,75.277-76.497
				c19.339-19.401,39.192-38.287,58.143-58.071c23.422-24.451,46.803-49.243,73.662-70.001
				c-6.746,5.212-13.492,10.424-20.238,15.636c11.5-8.792,23.646-16.87,37.007-22.557c-7.963,3.359-15.925,6.72-23.888,10.08
				c6.114-2.516,12.389-4.462,18.937-5.446c-8.861,1.19-17.723,2.381-26.584,3.571c2.5-0.328,4.991-0.516,7.513-0.543
				c-32.143-42.194-64.285-84.39-96.428-126.584c-0.817,4.12-1.98,8.059-3.54,11.958c3.36-7.962,6.721-15.925,10.081-23.888
				c-5.173,11.963-13.529,22.191-20.484,33.126c-8.723,13.714-17.105,27.643-25.234,41.716c-15.653,27.1-30.35,54.837-43.698,83.146
				c-13.325,28.258-25.934,56.848-39.212,85.127c-6.466,13.771-13.124,27.451-20.067,40.987c-3.463,6.75-7.029,13.446-10.669,20.103
				c-3.052,5.58-5.855,11.915-9.74,16.958c5.212-6.746,10.424-13.492,15.636-20.238c-13.524,17.465-27.795,34.693-39.369,53.587
				c-8.418,13.741-15.179,29.082-20.006,44.319c-3.483,10.994-5.003,23-4.838,34.458c0.248,17.257,5.019,41.206,15.34,55.697
				c8.89,15.026,20.848,26.985,35.875,35.875c21.924,12.843,52.454,18.525,77.056,10.081c21.893-7.514,43.007-17.013,61.742-30.609
				c18.805-13.646,36.754-28.159,53.462-44.268c23.193-22.361,46.626-44.379,68.703-67.873c22.69-24.147,44.27-49.328,64.938-75.223
				c15.271-19.131,30.213-38.541,44.809-58.192c9.922-13.359,19.199-27.188,29.095-40.558c23.67-31.977,45.146-65.521,65.807-99.5
				c10.173-16.73,19.932-33.704,29.975-50.509c4.476-7.487,9.187-14.823,13.368-22.483c5.83-10.683,10.404-22.832,14.867-33.775
				c1.73-4.244,3.122-8.519,3.962-13.03c4.763-17.723,4.763-35.445,0-53.168c-6.876-24.996-23.602-46.668-45.956-59.763
				c-39.628-23.214-88.417-15.314-121.183,15.636c-22.623,21.37-43.273,44.683-62.313,69.284
				c-24.314,31.416-47.404,63.201-67.828,97.303c-37.391,62.429-65.565,129.235-92.551,196.665
				c-12.531,31.311-24.302,62.959-33.781,95.341c-2.343,8.003-4.494,16.061-6.503,24.153c-1.573,6.334-3.908,12.429-5.605,18.733
				c-3.779,14.04-6.61,29.236-5.469,43.78c0.858,10.937,1.195,23.208,5.402,33.733c10.599,26.514,10.763,26.725,28.942,49.193
				c12.478,12.394,27.187,20.966,44.127,25.717c8.861,1.191,17.723,2.382,26.584,3.572c18.051-0.057,34.875-4.607,50.472-13.653
				c4.67-2.093,9.065-4.622,13.293-7.501c11.458-7.807,22.593-16.418,32.805-25.842c14.742-13.604,26.869-30.753,38.647-46.678
				c15.067-20.372,27.289-42.729,39.356-64.951c13.445-24.761,28.031-48.827,42.005-73.29
				c17.517-30.667,34.372-61.707,50.962-92.883c8.943-16.809,17.636-33.638,25.804-50.837c8.054-16.957,16.419-33.966,27.917-48.901
				c-5.212,6.746-10.424,13.493-15.637,20.239c2.001-2.528,4.078-4.975,6.264-7.345c-55.713-32.432-111.426-64.863-167.139-97.295
				c-0.383,1.129-0.818,2.237-1.277,3.338c3.36-7.963,6.721-15.926,10.081-23.888c-9.041,21.378-21.878,41.445-33.268,61.607
				c-17.757,31.436-35.348,62.979-51.586,95.233c-8.298,16.482-16.219,33.163-23.463,50.137
				c-9.736,22.813-19.787,45.626-26.831,69.457c-6.168,20.867-9.858,43.151-10.654,64.802c-0.937,25.467,5.49,55.395,19.424,77.122
				c18.015,28.089,45.205,50.296,78.312,57.826c24.801,5.641,48.66,6.311,73.379-0.507c12.771-3.522,24.501-10.132,36.621-15.407
				c-7.963,3.36-15.926,6.721-23.888,10.081c0.83-0.345,1.659-0.65,2.547-0.807c-8.861,1.19-17.723,2.381-26.584,3.572
				c0.306-0.034,0.592-0.048,0.898-0.033c-8.861-1.191-17.723-2.382-26.584-3.572c0.281,0.039,0.523,0.099,0.789,0.198
				c-7.963-3.36-15.925-6.721-23.888-10.081c0.167,0.074,0.322,0.166,0.468,0.276c-6.746-5.212-13.492-10.425-20.238-15.637
				c0.237,0.202,0.427,0.406,0.618,0.653c-5.212-6.747-10.424-13.493-15.636-20.239c0.203,0.314,0.367,0.626,0.522,0.966
				c-3.36-7.963-6.721-15.925-10.081-23.888c0.457,1.179,0.688,2.397,0.875,3.644c-1.19-8.861-2.382-17.723-3.572-26.584
				c1.01,7.975,0.528,16.188,0.325,24.195c-1.382,54.513,46.533,100,100,100c26.416,0,52.042-10.62,70.711-29.289
				c19.057-19.058,28.611-43.991,29.289-70.711c0.186-7.307,0.458-14.666-0.086-21.964c-0.789-10.583-1.512-21.405-4.389-31.626
				c-5.225-18.565-13.744-32.497-26.938-46.394c-24.605-25.915-66.874-37.038-101.044-25.991
				c-11.404,3.687-21.479,9.215-32.261,13.879c7.963-3.36,15.925-6.721,23.888-10.081c-3.649,1.529-7.387,2.627-11.308,3.186
				c8.861-1.191,17.723-2.382,26.584-3.572c-3.684,0.438-7.321,0.38-11-0.087c8.861,1.191,17.723,2.382,26.584,3.572
				c-3.444-0.523-6.807-1.302-10.032-2.628c7.962,3.36,15.925,6.72,23.888,10.081c-2.241-0.969-4.333-2.166-6.272-3.65
				c6.747,5.212,13.493,10.424,20.239,15.636c-1.693-1.35-3.193-2.868-4.526-4.574c5.212,6.746,10.424,13.492,15.636,20.238
				c-1.429-1.902-2.594-3.944-3.554-6.12c3.36,7.963,6.721,15.926,10.081,23.889c-1.449-3.436-2.33-7.032-2.856-10.717
				c1.19,8.861,2.382,17.723,3.572,26.584c-0.967-7.358-0.552-14.796,0.421-22.131c-1.19,8.861-2.382,17.723-3.572,26.584
				c3.41-24.605,12.488-48.366,22.07-71.141c-3.36,7.963-6.721,15.926-10.081,23.889c26.886-63.593,62.739-122.719,95.945-183.081
				c9.373-17.038,18.313-34.631,24.558-53.078c4.763-17.723,4.763-35.445,0-53.168c-6.876-24.996-23.602-46.668-45.956-59.763
				c-37.597-22.024-90.909-17.195-121.183,15.636c-14.738,15.984-27.811,34.082-38.202,53.229
				c-6.812,12.55-12.654,25.602-18.848,38.46c-14.372,29.841-30.833,58.845-46.779,87.867c-16.433,29.908-33.83,59.21-50.881,88.759
				c-11.793,20.438-22.381,41.535-34.53,61.774c-6.868,11.441-14.22,22.603-22.346,33.193c5.212-6.746,10.424-13.493,15.637-20.239
				c-8.18,10.523-17.148,20.439-27.666,28.681c6.746-5.212,13.493-10.424,20.239-15.636c-5.477,4.18-11.269,7.808-17.562,10.629
				c40.394,5.212,80.788,10.424,121.183,15.636c-0.324-0.4-0.647-0.8-0.972-1.2c5.212,6.746,10.425,13.492,15.637,20.239
				c-0.866-1.258-1.587-2.493-2.254-3.867c3.36,7.963,6.721,15.926,10.081,23.889c-0.746-1.864-1.264-3.69-1.636-5.663
				c1.19,8.861,2.381,17.723,3.571,26.584c-0.476-3.629-0.367-7.151,0.082-10.778c-1.19,8.861-2.382,17.723-3.572,26.584
				c1.054-6.824,3.136-13.36,5.335-19.888c2.728-8.097,4.373-16.631,6.67-24.869c5.087-18.25,11.067-36.244,17.453-54.077
				c12.653-35.34,27.249-69.943,41.498-104.658c-3.36,7.963-6.721,15.926-10.081,23.888
				c29.799-67.964,65.883-133.573,111.216-192.48c-5.212,6.746-10.424,13.492-15.636,20.238
				c19.039-24.601,39.69-47.914,62.313-69.283c-55.713-32.432-111.426-64.863-167.139-97.295c-0.84,4.512-2.231,8.786-3.962,13.031
				c3.36-7.963,6.721-15.926,10.08-23.889c-4.442,10.278-10.435,19.736-16.268,29.262c-6.15,10.043-11.927,20.323-17.945,30.448
				c-13.041,21.942-26.339,43.736-40.177,65.188c-13.362,20.715-27.869,40.527-41.901,60.769
				c-14.017,20.218-28.566,40.064-43.599,59.538c5.212-6.746,10.425-13.492,15.637-20.238
				c-26.379,34.069-54.327,66.901-84.055,98.099c-14.964,15.704-30.423,30.935-46.313,45.699
				c-14.663,13.626-28.533,27.962-44.374,40.28c6.746-5.213,13.492-10.425,20.239-15.637c-10.615,8.12-21.825,15.357-34.09,20.734
				c7.963-3.36,15.926-6.721,23.889-10.081c-2.703,1.135-5.428,2.178-8.2,3.13c37.644,15.318,75.287,30.637,112.931,45.956
				c-0.349-0.49-0.633-0.971-0.898-1.511c3.36,7.963,6.721,15.925,10.081,23.888c-0.313-0.784-0.52-1.55-0.667-2.381
				c1.19,8.861,2.381,17.723,3.572,26.584c-0.17-1.436-0.13-2.826,0.03-4.261c-1.19,8.861-2.382,17.723-3.572,26.584
				c0.534-3.623,1.732-7.054,3.139-10.423c-3.36,7.962-6.721,15.925-10.081,23.888c6.892-15.875,17.576-30.12,28.096-43.75
				c-5.213,6.746-10.425,13.492-15.637,20.238c6.468-8.359,12.946-16.707,19.398-25.082c4.207-5.461,7.204-12.438,10.51-18.482
				c8.283-15.146,16.01-30.593,23.502-46.144c15.062-31.261,28.981-63.056,43.682-94.486c14.748-31.531,31.134-62.325,48.65-92.401
				c8.778-15.071,17.703-30.197,27.524-44.618c12.59-18.487,24.213-38.293,28.635-60.587c1.19-8.861,2.382-17.723,3.572-26.584
				c-0.056-18.051-4.607-34.875-13.653-50.472c-17.667-30.16-51.194-49.903-86.347-49.528
				c-37.413,0.399-74.103,14.225-104.627,35.374c-27.209,18.852-52.212,40.549-75.563,63.936
				c-15.443,15.467-30.114,31.699-45.716,47.007c-24.621,24.156-49.031,48.507-73.214,73.103
				c-27.658,28.133-55.157,56.422-82.951,84.421c-10.737,10.816-21.162,21.749-31.313,33.116
				c-10.446,11.697-21.14,23.289-33.48,33.031c6.746-5.212,13.492-10.424,20.239-15.637c-5.697,4.379-11.669,8.268-18.251,11.184
				c7.962-3.36,15.925-6.721,23.888-10.081c-0.876,0.376-1.762,0.729-2.656,1.06c41.004,23.281,82.008,46.563,123.012,69.844
				c-0.039-0.289-0.079-0.578-0.118-0.867c1.19,8.861,2.382,17.723,3.572,26.584c-0.127-1.591-0.08-3.131,0.085-4.717
				c-1.19,8.861-2.381,17.723-3.571,26.584c0.597-4.21,1.927-8.194,3.518-12.124c-3.36,7.963-6.721,15.926-10.081,23.889
				c7.748-18.314,19.895-34.662,29.933-51.751c16.326-27.79,33.161-55.28,50.477-82.466
				c34.821-54.669,71.782-107.854,111.386-159.168c-5.212,6.746-10.424,13.492-15.637,20.238
				c84.553-109.378,177.273-212.016,267.381-316.763c18.473-21.475,36.826-43.053,54.987-64.791
				c-52.353-40.395-104.705-80.789-157.058-121.183c-81.856,113.068-155.753,231.593-235.439,346.16
				c-33.312,47.892-67.914,94.86-103.556,141.043c5.212-6.746,10.424-13.493,15.636-20.239
				c-25.64,33.173-52.047,65.77-80.258,96.802c-14.222,15.643-28.955,30.82-44.225,45.442
				c-14.146,13.546-28.673,27.319-43.965,39.566c6.747-5.213,13.493-10.425,20.239-15.637c-3.272,2.517-6.655,4.686-10.453,6.321
				c7.963-3.359,15.925-6.72,23.888-10.08c-2.649,1.018-5.302,1.715-8.102,2.175c8.861-1.19,17.723-2.381,26.584-3.572
				c-2.121,0.265-4.217,0.396-6.354,0.432c32.143,24.472,64.285,48.944,96.428,73.416c-0.445-1.439-0.757-2.875-0.972-4.366
				c1.191,8.861,2.382,17.723,3.572,26.584c-0.321-2.981-0.218-5.917,0.14-8.891c-1.19,8.861-2.382,17.723-3.572,26.584
				c1.022-7.148,3.358-13.972,6.115-20.621c-3.36,7.963-6.721,15.925-10.081,23.888c8.765-20.591,21.354-39.272,33.443-58.005
				c6.549-10.147,12.124-20.803,18-31.349c8.522-15.296,17.305-30.445,26.244-45.501c35.743-60.199,74.406-118.598,112.705-177.183
				c39.121-59.843,79.69-118.71,121.16-176.948C882.79,592.485,924.5,534.982,967.699,478.73c0.387-0.502,0.774-1.004,1.161-1.505
				c-5.212,6.746-10.424,13.492-15.636,20.239c15.916-20.526,32.67-40.384,48.575-60.917c20.488-26.449,41.351-52.745,56.841-82.545
				c9.046-15.597,13.598-32.421,13.653-50.472c0-26.416-10.62-52.042-29.289-70.71c-37.625-37.625-104.103-39.729-141.422,0
				c-50.389,53.644-90.959,115.651-133.743,175.275c-40.726,56.754-81.468,113.504-122.267,170.207
				c-30.09,41.819-60.551,83.378-92.024,124.169c5.212-6.747,10.424-13.493,15.637-20.239
				c-37.032,47.925-75.301,95.2-117.374,138.82c-16,16.588-32.63,32.784-50.861,46.928c6.746-5.212,13.493-10.424,20.239-15.637
				c-8.803,6.781-18.079,13.29-28.346,17.665c7.963-3.36,15.925-6.721,23.888-10.081c-3.542,1.47-7.189,2.656-10.999,3.18
				c8.861-1.191,17.723-2.382,26.584-3.572c-1.97,0.236-3.929,0.281-5.9,0.035c8.861,1.19,17.723,2.381,26.584,3.571
				c-1.383-0.206-2.71-0.551-4.009-1.071c7.962,3.36,15.925,6.721,23.888,10.081c-1.136-0.492-2.186-1.096-3.184-1.83
				c6.747,5.212,13.493,10.425,20.239,15.637c-1.144-0.893-2.137-1.907-3.034-3.046c5.212,6.746,10.424,13.492,15.636,20.238
				c-1.189-1.591-2.12-3.311-2.896-5.137c3.36,7.963,6.721,15.926,10.081,23.889c-0.705-1.75-1.295-3.529-1.63-5.389
				c1.19,8.861,2.381,17.723,3.572,26.584c-0.326-2.576-0.183-5.098,0.16-7.666c-1.191,8.861-2.382,17.723-3.572,26.584
				c1.268-7.972,4.16-15.581,7.256-23c-3.36,7.963-6.721,15.926-10.081,23.889c8.494-20,18.673-38.905,26.531-59.26
				c-3.36,7.963-6.721,15.926-10.081,23.888c16.212-32.352,33.844-63.938,51.125-95.722c16.921-31.119,34.094-62.101,51.618-92.883
				c17.464-30.676,35.32-61.128,53.646-91.297c17.241-28.384,35.342-56.222,52.731-84.51
				c38.987-63.417,75.864-128.399,121.447-187.444c-5.212,6.746-10.425,13.493-15.637,20.239
				c22.14-28.537,46.302-55.58,73.845-79.027c-52.353-40.394-104.705-80.788-157.058-121.182
				c-83.822,110.177-169.139,219.271-249.273,332.195c-45.59,64.243-89.418,129.769-130.139,197.217
				c-28.19,46.692-10.617,109.584,35.875,136.818c23.095,13.529,51.245,17.181,77.056,10.081
				c25.846-7.109,45.496-23.736,59.763-45.956C585.804,765.434,626,705.639,666.304,645.923
				c39.561-58.615,78.129-117.995,119.93-175.052c7.788-10.629,15.707-21.161,23.749-31.6c-5.212,6.746-10.425,13.492-15.637,20.239
				c13.883-17.968,28.173-35.613,43.036-52.78c6.81-7.865,14.272-15.091,21.574-22.492c13.035-13.212,24.869-27.945,34.979-43.472
				c19.242-29.552,17.407-71.228,0-100.943c-22.321-38.106-70.022-58.662-112.931-45.956
				c-70.524,20.884-117.401,78.852-162.059,133.429c-46.698,57.072-89.889,117.027-127.372,180.561
				c-32.842,55.669-60.143,113.814-84.825,173.501c3.36-7.963,6.72-15.926,10.081-23.888
				c-10.167,23.804-23.761,45.608-39.514,66.097c5.212-6.746,10.424-13.492,15.636-20.238
				c-15.415,19.884-32.176,38.74-48.508,57.869c-17.215,20.162-34.615,40.169-52.481,59.759
				c-35.666,39.108-73.455,76.501-115.378,108.921c6.746-5.212,13.492-10.424,20.239-15.636
				c-12.729,9.039-24.716,19.088-37.054,28.648c6.746-5.212,13.492-10.425,20.239-15.637c-8.202,6.297-16.685,12.309-26.224,16.417
				c7.963-3.36,15.925-6.721,23.888-10.081c-3.55,1.426-7.124,2.517-10.907,3.117c8.861-1.19,17.723-2.381,26.584-3.572
				c-2.693,0.317-5.293,0.351-7.988,0.032c8.861,1.19,17.723,2.381,26.584,3.571c-0.435-0.074-0.869-0.149-1.303-0.224
				c19.921,15.318,39.842,30.637,59.763,45.956c-0.137-0.291-0.274-0.582-0.411-0.873c3.36,7.963,6.721,15.926,10.081,23.889
				c-0.906-2.181-1.479-4.385-1.835-6.717c1.19,8.861,2.381,17.723,3.572,26.584c-0.439-3.728-0.299-7.407,0.161-11.126
				c-1.191,8.861-2.381,17.723-3.572,26.584c1.4-9.699,4.723-18.961,8.511-27.957c-3.36,7.962-6.721,15.925-10.081,23.888
				c8.918-20.784,20.278-40.594,30.183-60.927c15.203-31.209,31.503-61.876,48.53-92.124
				c34.242-60.832,71.501-120.075,110.61-177.889c41.781-61.763,86.686-121.349,132.25-180.352
				c-5.212,6.747-10.424,13.493-15.637,20.239c14.396-18.633,29.267-36.985,43.132-56.006c8.533-11.707,16.95-23.497,25.807-34.964
				c-5.212,6.747-10.424,13.493-15.637,20.239c12.623-16.23,26.112-31.956,42.23-44.835
				c-52.353-40.394-104.705-80.788-157.058-121.182c-59.796,122.427-142.413,231.595-215.862,345.816
				C244.398,749.59,180.268,842.414,112.417,932.47c5.212-6.746,10.424-13.493,15.637-20.239
				c-14.692,18.841-28.208,38.438-42.768,57.351c5.212-6.746,10.424-13.493,15.637-20.239c-8.51,10.949-17.621,21.575-28.601,30.135
				c6.747-5.212,13.493-10.424,20.239-15.636c-4.361,3.285-8.929,6.146-13.949,8.313c7.962-3.36,15.925-6.721,23.888-10.081
				c-0.784,0.326-1.577,0.63-2.378,0.911c37.644,15.318,75.288,30.637,112.931,45.956c-0.396-0.64-0.735-1.272-1.047-1.957
				c3.36,7.963,6.721,15.926,10.081,23.888c-0.469-1.219-0.771-2.426-0.967-3.716c1.19,8.86,2.381,17.722,3.572,26.583
				c-0.211-2.028-0.136-4.006,0.111-6.027c-1.19,8.861-2.381,17.723-3.572,26.584c0.692-4.533,2.15-8.843,3.888-13.072
				c-3.36,7.962-6.721,15.925-10.081,23.888c7.702-18.077,19.721-33.791,30.485-50.082c7.669-11.605,14.059-24.171,21.085-36.175
				c9.03-15.426,18.211-30.763,27.489-46.04c36.756-60.526,74.974-120.258,114.185-179.222
				c33.055-49.707,68.968-97.446,105.447-144.672c-5.213,6.747-10.425,13.493-15.637,20.239
				c73.667-95.306,150.58-188.721,214.961-290.746c23.885-37.85,15.327-90.219-15.636-121.182
				c-12.478-12.394-27.187-20.966-44.127-25.717c-26.913-7.403-52.74-2.521-77.056,10.081
				c-12.217,6.331-23.146,16.176-33.558,24.642c-5.669,4.61-10.845,9.827-15.865,15.124c-9.803,10.344-18.313,21.806-28.266,31.989
				c-25.083,25.666-50.169,51.329-75.255,76.992c-49.827,50.973-99.818,101.779-149.009,153.367
				c-35.648,37.385-71.361,74.719-108.238,110.9c-18.443,18.096-37.21,35.863-56.366,53.203
				c-15.352,13.896-29.497,29.357-45.9,42.047c6.746-5.212,13.493-10.425,20.239-15.637c-6.346,4.796-12.98,9.133-20.325,12.244
				c7.963-3.36,15.925-6.721,23.888-10.081c-2.635,1.034-5.28,1.876-8.045,2.482c41.004,23.281,82.008,46.563,123.012,69.844
				c-0.899-2.5-1.494-5.016-1.858-7.646c1.19,8.861,2.381,17.723,3.572,26.584c-0.43-4.016-0.295-7.975,0.208-11.977
				c-1.191,8.861-2.381,17.723-3.572,26.584c1.197-8.14,3.778-15.917,6.911-23.502c-3.36,7.963-6.721,15.926-10.081,23.888
				c9.109-21.47,22.477-40.529,33.979-60.701c16.332-28.643,32.652-57.181,50.249-85.08
				c36.813-58.365,77.26-114.178,118.568-169.411c18.802-25.141,37.833-50.11,57.02-74.958
				c-5.212,6.746-10.424,13.492-15.636,20.239c43.032-55.691,86.9-110.728,131.159-165.448
				c15.586-19.271,33.023-36.722,49.461-55.243c13.933-15.698,27.177-32.273,38.899-49.668c3.131-4.646,5.959-9.49,8.427-14.52
				c5.835-11.895,12.026-24.62,15.049-37.738c4.763-17.723,4.763-35.445,0-53.168c-4.751-16.94-13.323-31.649-25.717-44.126
				c-12.478-12.394-27.187-20.966-44.127-25.717c-8.861-1.191-17.723-2.381-26.584-3.572c-18.051,0.056-34.875,4.607-50.472,13.653
				c-18.816,13.341-36.602,27.671-52.572,44.268c-10.806,11.229-20.871,23.155-30.957,35.026
				c-22.053,25.955-44.779,51.332-66.858,77.269c-45.837,53.845-90.819,108.465-135.177,163.533
				c-38.221,47.449-75.953,95.319-116.104,141.169c-19.835,22.651-40.312,44.745-61.636,66.003
				c-9.838,9.809-20.095,19.183-29.912,29.008c-8.397,8.405-17.025,16.575-26.37,23.928c6.746-5.212,13.492-10.424,20.239-15.636
				c-7.685,5.928-15.777,11.248-24.722,15.08c7.963-3.36,15.925-6.721,23.888-10.081c-4.626,1.863-9.315,3.241-14.262,3.927
				c8.861-1.191,17.723-2.382,26.584-3.572c-0.946,0.115-1.895,0.198-2.846,0.249c28.782,16.51,57.565,33.019,86.347,49.528
				c-0.308-0.581-0.587-1.175-0.838-1.782c3.36,7.963,6.72,15.926,10.081,23.889c-0.731-1.883-1.225-3.771-1.546-5.764
				c1.191,8.861,2.381,17.723,3.572,26.584c-0.395-3.231-0.295-6.404,0.117-9.63c-1.19,8.861-2.381,17.723-3.572,26.584
				c0.945-6.166,2.915-12.037,5.316-17.777c-3.36,7.962-6.721,15.925-10.081,23.888c8.294-19.186,20.806-35.994,32.344-53.281
				c17.055-25.552,34.912-50.463,53.693-74.78c-5.212,6.746-10.424,13.492-15.637,20.238
				c42.293-54.612,87.547-106.976,132.84-159.103c44.181-50.846,88.336-101.683,131.665-153.259
				c12.591-14.987,25.125-30.328,35.603-46.891c7.18-11.349,11.861-24.448,16.888-36.686c5.113-12.447,5.885-26.57,7.032-39.699
				c-0.056-18.051-4.607-34.875-13.653-50.472c-8.89-15.027-20.848-26.985-35.875-35.875c-15.597-9.046-32.421-13.597-50.472-13.653
				c-18.051,0.056-34.875,4.607-50.472,13.653c-12.556,6.104-24.092,16.339-34.631,24.718c-5.758,4.579-11.054,9.64-16.13,14.958
				c-10.092,10.573-19.084,22.153-28.347,33.442c-26.725,32.575-53.204,65.136-78.968,98.497
				c-43.007,55.688-83.797,112.948-125.231,169.796c-9.448,12.962-19.03,25.825-28.818,38.532
				c5.212-6.746,10.424-13.492,15.636-20.239c-9.617,12.443-19.636,24.562-29.304,36.963c-8.382,10.753-17.121,21.336-27.857,29.84
				c6.746-5.212,13.493-10.424,20.239-15.637c-4.274,3.25-8.741,6.052-13.648,8.246c48.966,19.921,97.933,39.842,146.899,59.763
				c-0.67-1.685-1.108-3.319-1.403-5.108c1.19,8.861,2.381,17.723,3.572,26.584c-0.24-2.374-0.194-4.661,0.051-7.033
				c-1.191,8.861-2.382,17.723-3.572,26.584c0.825-5.716,2.658-11.106,4.865-16.424c-3.36,7.963-6.721,15.926-10.081,23.888
				c1.627-3.769,3.407-7.458,5.255-11.123c5.845-11.592,10.711-23.624,15.338-35.752c4.326-11.34,8.901-22.583,13.604-33.771
				c-3.36,7.963-6.721,15.926-10.081,23.889c23.125-54.743,49.692-108.005,75.297-161.611
				c12.961-27.136,25.749-54.358,37.774-81.924c15.881-36.401,38.689-71.146,36.187-112.791
				c-0.056-18.051-4.607-34.875-13.653-50.472c-8.89-15.027-20.849-26.985-35.875-35.875c-31.313-18.343-69.573-17.535-100.943,0
				c-15.54,8.686-29.761,20.315-42.589,32.617c-13.587,13.03-24.814,28.921-36.105,43.756c-14.34,18.84-26.363,39.364-38.341,59.745
				c-5.408,9.203-10.792,18.421-16.415,27.494c-4.341,7.005-9.241,13.653-13.246,20.856c-8.669,15.591-16.584,31.671-27.512,45.866
				c5.212-6.746,10.424-13.493,15.636-20.239c-3.413,4.336-7.078,8.447-11.415,11.882c6.747-5.212,13.493-10.424,20.239-15.636
				c-1.962,1.476-3.992,2.753-6.239,3.75c7.963-3.36,15.925-6.721,23.888-10.081c-1.534,0.607-3.054,1.037-4.689,1.264
				c8.861-1.191,17.723-2.381,26.584-3.572c-1.052,0.089-2.061,0.089-3.112-0.003c8.861,1.19,17.723,2.381,26.584,3.572
				c-1.351-0.2-2.593-0.547-3.859-1.059c7.962,3.36,15.925,6.72,23.888,10.081c-1.288-0.611-2.473-1.328-3.623-2.169
				c6.746,5.212,13.493,10.424,20.239,15.636c-1.803-1.42-3.35-3.042-4.765-4.846c5.212,6.747,10.424,13.493,15.636,20.239
				c-2.284-3.063-4.058-6.403-5.581-9.9c3.36,7.963,6.721,15.925,10.081,23.888c-4.416-10.556-6.569-21.924-8.126-33.21
				c1.191,8.861,2.381,17.723,3.572,26.584c-2.72-20.474-3.218-41.183-3.13-61.813c0.104-24.327,0.77-48.897,3.999-73.021
				c-1.191,8.861-2.381,17.723-3.572,26.584c0.585-4.057,1.278-8.084,2.108-12.098c1.191-8.861,2.381-17.723,3.572-26.584
				c-0.056-18.051-4.607-34.875-13.653-50.472c-13.095-22.354-34.767-39.081-59.763-45.956c-25.811-7.1-53.96-3.448-77.056,10.081
				C-11.103,126.636-30.805,149.396-35.898,174.004L-35.898,174.004z"/>
		</g>
	</g>
</g>
<g id="Layer_3" display="none">
</g>
<g id="Layer_4">
	<g>
		<g>
			<path fill="#FFFFFF" d="M500.333,46.506c-242.291,0-438.5,193.342-438.5,432.154c0,105.774,38.658,202.721,102.838,277.84
				c-41.595-59.476-65.935-131.404-65.935-208.854c0-204.259,169.463-369.975,378.385-369.975
				c208.923,0,377.886,165.715,377.886,369.975c0,166.776-112.506,307.966-267.422,354.28
				c200.447-39.858,351.247-214.343,351.247-423.266C938.833,239.848,742.626,46.506,500.333,46.506z"/>
		</g>
	</g>
</g>
<g id="Layer_6">
	<g>
		<g>
			<path fill="#FFFFFF" d="M219.466,560.505c0-139.07,76.984-255.28,179.798-283.672c-153.147,18.569-227.89,108.171-227.89,227.543
				c0,62.672,22.571,113.191,60.496,150.798C223.838,625.498,219.466,593.653,219.466,560.505z"/>
		</g>
	</g>
</g>
<g id="Layer_8">
	<g>
		<g>
			<path fill="#FFFFFF" d="M598.963,276.732c92.092,36.925,157.356,127.511,157.356,233.654
				c0,138.793-111.977,251.145-249.558,251.145c-133.376,0-242.068-105.208-248.956-237.773c-0.771,8.419-1.187,16.94-1.187,25.559
				c0,153.986,125.973,279.01,281.452,279.01c155.73,0,281.703-125.023,281.703-279.01
				C819.774,415.9,725.357,304.305,598.963,276.732z"/>
		</g>
	</g>
</g>
<g id="logo" display="none">
	
		<image display="inline" overflow="visible" width="560" height="431" xlink:href="29E925FC.png"  transform="matrix(1 0 0 1 212.6665 237.6665)">
	</image>
</g>
<g id="Layer_7">
	<path fill="#FFFFFF" d="M576.646,516.064c0,42.365-34.281,76.646-76.396,76.646c-42.366,0-76.646-34.28-76.646-76.646
		c0-42.354,34.28-76.646,76.646-76.646C542.364,439.419,576.646,473.711,576.646,516.064z"/>
</g>
<g id="Layer_9">
	<g>
		<g>
			<path fill="#FFFFFF" d="M500.333,295.395c-101.852,0-184.183,82.713-184.183,184.976c0,64.653,33.078,121.638,83.229,154.713
				c-38.1-29.396-59.184-75.643-59.184-125.3c0-86.739,71.436-157.266,159.303-157.266c88.118,0,153.285,69.672,156.546,156.282
				c1.739,54.51-21.879,103.37-64.027,132.025c55.31-31.944,92.5-91.894,92.5-160.455
				C684.518,378.108,602.185,295.395,500.333,295.395z"/>
		</g>
	</g>
</g>
</svg>
